<svg width="50" height="36" viewBox="0 0 50 36" fill="none" xmlns="http://www.w3.org/2000/svg">
<path d="M38.9152 35.5902C41.3037 35.5834 43.6154 34.768 45.459 33.2827C47.3025 31.7972 48.5641 29.7333 49.0293 27.4412C49.4954 25.1491 49.1351 22.7699 48.0112 20.7078C46.8883 18.6457 45.0697 17.0278 42.8658 16.1284C43.0115 15.355 43.0844 14.57 43.0824 13.7835C43.0794 10.6768 41.9366 7.67453 39.8604 5.324C37.7843 2.97347 34.9137 1.43118 31.7732 0.97828C28.6323 0.525378 25.4296 1.19202 22.749 2.85668C20.0684 4.52134 18.0884 7.07317 17.1698 10.047C16.141 9.80649 15.0872 9.68332 14.0295 9.67981C12.2909 9.67981 10.5692 10.0149 8.96289 10.666C7.3566 11.317 5.89714 12.2713 4.66775 13.4743C3.43835 14.6772 2.46308 16.1055 1.79773 17.6773C1.13238 19.2491 0.789917 20.9337 0.789917 22.635C0.789917 24.3363 1.13238 26.0209 1.79773 27.5927C2.46308 29.1645 3.43835 30.5927 4.66775 31.7957C5.89714 32.9987 7.3566 33.953 8.96289 34.604C10.5692 35.2551 12.2909 35.5902 14.0295 35.5902H38.9152Z" fill="white"/>
</svg>
